# xmcd
#
# Track frame offsets: 
#        150
#        16692
#        37132
#        53412
#        70010
#        86077
#        99147
#        116890
#        132817
#        149165
#        166327
#
# Disc length: 2417 seconds
#
# Revision: 1
# Processed by: cddbd v1.5.2PL0 Copyright (c) Steve Scherf et al.
# Submitted via: ExactAudioCopy v1.3
#
DISCID=8f096f0b
DTITLE=YOU CAN DENCE - YCD
DYEAR=1900
DGENRE=Dance
TTITLE0=ANJO
TTITLE1=YOU TOOK MY LOVE
TTITLE2=SEM O TEU AMOR (EU NAO VOU FICAR)
TTITLE3=TE QUERO TANTO
TTITLE4=TE FAÇO FELIZ
TTITLE5=ERVA VENENOSA
TTITLE6=SEMPRE TE AMEI
TTITLE7=TARDE DEMAIS
TTITLE8=TE QUERO PRA SEMPRE
TTITLE9=SURPRESAS DO AMOR
TTITLE10=BRINCAR DE AMAR
EXTD=
EXTT0=
EXTT1=
EXTT2=
EXTT3=
EXTT4=
EXTT5=
EXTT6=
EXTT7=
EXTT8=
EXTT9=
EXTT10=
PLAYORDER=
